<?xml version="1.0" encoding="utf-8"?>
<!-- Generator: Adobe Adobe Illustrator 29.2.0, SVG Export Plug-In . SVG Version: 6.00 Build 0)  -->
<svg version="1.1" id="Layer_2" xmlns="http://www.w3.org/2000/svg" xmlns:xlink="http://www.w3.org/1999/xlink" x="0px" y="0px"
	 width="830px" height="830px" viewBox="0 0 830 830" style="enable-background:new 0 0 830 830;" xml:space="preserve">
<style type="text/css">
	.st0{fill:#4D72B8;}
	.st1{fill:#8E44AD;}
</style>
<path class="st0" d="M63.9,439.2c0,0-65.7-78.8,0-200.7c62.4-115.7,208.2-105.9,208.2-105.9h177.5V47.6c0,0-4.4-69.1,43.5-31.8
	s246.3,186.9,246.3,186.9s41.1,32.8,0,63.7S493.1,447.1,493.1,447.1s-43.5,27.5-43.5-33.7c0-70.3,0-85.9,0-85.9
	s-132.9-5.1-190.4,10.7c-58.5,16.1-112.3,47.6-157.5,102.9C80.7,466.9,63.9,439.2,63.9,439.2z"/>
<path class="st1" d="M766.1,390.8c0,0,65.7,78.8,0,200.7c-62.4,115.7-208.2,105.9-208.2,105.9H380.4v84.9c0,0,4.4,69.1-43.5,31.8
	S90.6,627.3,90.6,627.3s-41.1-32.8,0-63.7s246.3-180.7,246.3-180.7s43.5-27.5,43.5,33.7c0,70.3,0,85.9,0,85.9s132.9,5.1,190.4-10.7
	c58.5-16.1,112.3-47.6,157.5-102.9C749.3,363.1,766.1,390.8,766.1,390.8z"/>
</svg>
